<svg xmlns="http://www.w3.org/2000/svg" width="24" height="24" fill="none" viewBox="0 0 24 24">
  <path fill="#000" stroke="#000"
    d="M11.995 4.69c.071 0 .133.017.195.06l.061.053 6.948 6.948a.4.4 0 0 1 .091.125v.001a.3.3 0 0 1 .024.124.3.3 0 0 1-.024.122v.001a.4.4 0 0 1-.09.125l-6.955 6.948c-.091.09-.17.117-.253.117-.08 0-.153-.025-.236-.11l-.005-.006-.052-.06a.3.3 0 0 1-.056-.183c0-.065.014-.122.056-.182l.052-.06 6.361-6.361H4.702A.33.33 0 0 1 4.351 12c0-.122.034-.195.095-.256h.001c.06-.06.133-.095.255-.096h13.41l-6.355-6.355a.35.35 0 0 1-.106-.185l-.005-.067a.31.31 0 0 1 .105-.244l.001-.001a.31.31 0 0 1 .243-.107Z" />
</svg>
