<svg width="32mm" height="32mm" version="1.1" viewBox="0 0 32 32" xml:space="preserve" xmlns="http://www.w3.org/2000/svg"><g transform="translate(1.397 3.282)" fill="#999" stroke-width=".06792"><path d="m13.62 14.65c-1.024-0.1476-2.187-0.6057-3.109-1.224-0.5857-0.3933-1.446-1.279-1.867-1.921-0.4259-0.6497-0.7204-1.338-0.9449-2.208-0.1533-0.5943-0.1651-0.7438-0.137-1.737 0.03472-1.226 0.1405-1.705 0.5889-2.662 0.362-0.7728 0.6946-1.254 1.312-1.9 2.164-2.262 5.544-2.85 8.334-1.451 1.427 0.7156 2.659 1.956 3.257 3.28 0.4652 1.03 0.5652 1.488 0.5957 2.733 0.02606 1.064 0.0149 1.207-0.1416 1.814-0.5078 1.97-1.818 3.615-3.613 4.535-1.287 0.6601-2.899 0.9395-4.275 0.7412z"/><path d="m-5.713e-8 24.62c0-0.0145 0.07761-0.2942 0.1725-0.6215 0.5924-2.044 2.148-3.983 4.344-5.411 2.774-1.805 6.297-2.772 10.09-2.769 1.439 0.0012 2.157 0.05852 3.464 0.2765 3.454 0.576 6.485 2.001 8.495 3.994 0.913 0.9058 1.469 1.63 1.911 2.492 0.2666 0.5188 0.733 1.791 0.733 1.999 0 0.04399-5.031 0.06711-14.6 0.06711-8.032-1e-6 -14.6-0.01185-14.6-0.02635z"/></g></svg>
