<svg xmlns="http://www.w3.org/2000/svg" width="24" height="24" fill="none" viewBox="0 0 24 24"><path fill="#000" d="M.862 15.953v-.426q0-1.399 1.39-1.837 1.39-.44 2.462-.44t2.462.438 1.39 1.839v.426zm3.85-4.042a1.9 1.9 0 0 1-1.395-.582 1.9 1.9 0 0 1-.58-1.4q0-.817.581-1.398.582-.58 1.397-.58.817 0 1.396.583.58.58.58 1.397 0 .816-.581 1.398a1.9 1.9 0 0 1-1.397.582m5.221 1.499a.66.66 0 0 1-.474-.18.6.6 0 0 1-.187-.462q0-.14.187-.487.195-.275.307-.575t.112-.625-.112-.644a1.9 1.9 0 0 0-.309-.562 1.2 1.2 0 0 1-.133-.227.6.6 0 0 1-.052-.25.637.637 0 0 1 .661-.658 1 1 0 0 1 .26.04.4.4 0 0 1 .208.141q.437.457.64 1.015.203.56.203 1.145 0 .58-.219 1.167-.218.585-.642 1.005a.5.5 0 0 1-.208.128 1 1 0 0 1-.242.029m1.904 1.902a.63.63 0 0 1-.657-.665q0-.134.048-.248.05-.114.13-.222.614-.719.911-1.504a4.5 4.5 0 0 0 .297-1.594q0-.81-.297-1.607a4.8 4.8 0 0 0-.912-1.499 1 1 0 0 1-.129-.218.6.6 0 0 1-.048-.252q0-.29.187-.474a.65.65 0 0 1 .474-.184q.147 0 .273.068.125.068.23.181.783.9 1.17 1.91a5.75 5.75 0 0 1 0 4.147 6.4 6.4 0 0 1-1.17 1.91.7.7 0 0 1-.224.188.6.6 0 0 1-.283.063m3.597.641v-.426q0-1.4 1.39-1.839 1.388-.438 2.462-.438 1.073 0 2.462.44 1.39.439 1.39 1.837v.426zm3.85-4.042a1.9 1.9 0 0 1-1.395-.582 1.9 1.9 0 0 1-.58-1.4q0-.817.581-1.398.58-.58 1.397-.58a1.9 1.9 0 0 1 1.395.583q.58.58.58 1.397 0 .816-.58 1.398a1.9 1.9 0 0 1-1.397.582"/></svg>