<svg xmlns="http://www.w3.org/2000/svg" width="208" height="48" fill="none" viewBox="0 0 208 48">
  <g clip-path="url(#clip0_9203_62959)">
    <path fill="#f6cc90"
      d="M6.984 38.114c0-.02 3.563-3.044 11.966-3.044 8.162 0 11.965 3.024 11.965 3.044z" />
    <path fill="#f0c17f"
      d="M18.95 35.07q-.782 0-1.509.033c7.15.33 10.497 2.992 10.497 3.01h2.977c0-.019-3.804-3.043-11.965-3.043" />
    <path fill="#c5e866"
      d="M24.383 14.01c-.973 2.824-3.597 3.31-3.597 3.31s-1.738-2.082-.79-4.832c.999-2.898 3.622-3.384 3.622-3.384s1.751 2.045.765 4.906" />
    <path fill="#b2d94b"
      d="M23.619 9.104s-.694.129-1.503.647c.445.82.996 2.36.341 4.259a5.03 5.03 0 0 1-2.087 2.666c.223.412.417.644.417.644s2.623-.486 3.597-3.31c.986-2.86-.765-4.906-.765-4.906" />
    <path fill="#9cc042"
      d="M21.768 27.286c-1.6.227-2.777-.1-2.777-.1s-1.018-4.085 2.164-7.278c3.352-3.362 7.34-2.256 7.34-2.256s.875 3.335-1.443 6.435" />
    <path fill="#85aa18"
      d="M28.494 17.652s-1.07-.296-2.566-.116c.404.051.64.116.64.116s.875 3.335-1.444 6.435l-5.283 3.199-.174.022c.499.062 1.238.1 2.1-.022l5.284-3.2c2.318-3.098 1.443-6.434 1.443-6.434" />
    <path fill="#c5e866"
      d="M15.177 25.143c2.84 2.237 2.355 5.444 2.355 5.444s-3.065 1.173-5.83-1.006c-2.913-2.295-2.429-5.502-2.429-5.502s3.029-1.202 5.904 1.064" />
    <path fill="#9cc042"
      d="M11.92 20.529c2.859 3.641 6.95 3.015 6.95 3.015s1.492-3.937-1.292-7.484c-2.932-3.736-7.023-3.11-7.023-3.11s-1.53 3.89 1.366 7.579" />
    <path fill="#c5e866"
      d="M26.312 28.937c-2.452 1.696-4.852.527-4.852.527s-.17-2.71 2.218-4.361c2.516-1.74 4.916-.572 4.916-.572s.203 2.688-2.282 4.406" />
    <path fill="#b2d94b"
      d="M28.595 24.531s-1.251-.608-2.894-.293c.6.114.968.293.968.293s.202 2.688-2.282 4.406a5.1 5.1 0 0 1-1.937.828 5.02 5.02 0 0 0 3.863-.828c2.484-1.718 2.282-4.406 2.282-4.406" />
    <path fill="#060606"
      d="M30.988 37.62c-.866-.61-1.853-1.065-2.838-1.444-1.777-.684-4.735-1.495-8.831-1.542.066-.566.224-1.38.593-2.286q.551-1.35 1.485-2.433c.292.12 1.043.383 2.026.383.91 0 2.016-.226 3.138-1.001 2.66-1.84 2.479-4.679 2.47-4.799a.44.44 0 0 0-.245-.36 4.6 4.6 0 0 0-1.017-.32 8.4 8.4 0 0 0 1.066-2.48c.137-.547-.712-.76-.85-.212a7.5 7.5 0 0 1-1.199 2.581c-.948-.022-2.138.192-3.357 1.035a5.44 5.44 0 0 0-1.83 2.124 7.6 7.6 0 0 1-1.877.007c.89-1.2 3.208-4.107 5.818-5.626.488-.284.048-1.04-.44-.756-2.54 1.477-4.75 4.108-5.816 5.505-.062-1.363.174-3.766 2.18-5.779 1.308-1.311 2.864-2.071 4.626-2.258a7.3 7.3 0 0 1 2.033.061c.038.229.086.598.095 1.06.01.56.885.553.875-.015-.016-.908-.169-1.5-.175-1.524a.44.44 0 0 0-.306-.31c-.044-.013-1.094-.298-2.575-.147-1.363.138-3.37.687-5.193 2.515a9 9 0 0 0-.428.463c.246-.757.514-1.576.789-2.4a5.49 5.49 0 0 0 3.592-3.51c1.056-3.062-.768-5.241-.846-5.332a.44.44 0 0 0-.413-.146c-.117.022-2.886.568-3.956 3.671-.888 2.576.377 4.59.764 5.12-.255.767-.504 1.527-.735 2.236a8.26 8.26 0 0 0-1.688-3.911c-1.595-2.032-3.523-2.814-4.86-3.113-1.453-.325-2.53-.167-2.574-.16a.44.44 0 0 0-.341.273c-.013.031-.303.779-.402 1.926-.048.563.824.638.872.075a7.4 7.4 0 0 1 .263-1.432 7.3 7.3 0 0 1 2.026.18c1.727.395 3.183 1.334 4.327 2.791 1.083 1.381 1.62 2.983 1.597 4.762a8 8 0 0 1-.154 1.473c-1.732-3.226-4.184-5.704-4.292-5.811-.398-.4-1.018.218-.62.618.026.026 2.554 2.582 4.228 5.772a7.6 7.6 0 0 1-1.468-.178c-1.714-.379-3.147-1.29-4.26-2.708a7.7 7.7 0 0 1-1.525-3.256c-.111-.554-.97-.38-.858.173a8.6 8.6 0 0 0 1.694 3.624c1.557 1.983 3.469 2.743 4.798 3.03a8.3 8.3 0 0 0 2.024.19v7.371a9 9 0 0 0-.425-.81 6.57 6.57 0 0 0-2.526-5.78c-3.039-2.396-6.203-1.181-6.336-1.128a.44.44 0 0 0-.272.341c-.021.141-.487 3.487 2.59 5.912a6.5 6.5 0 0 0 4.093 1.42 7 7 0 0 0 1.762-.224c.61 1.064.97 2.24 1.078 3.516-2.265.039-4.379.299-6.29.776-.548.137-.335.986.213.85 1.851-.463 3.906-.715 6.113-.75v1.006c0 .564.875.564.875 0v-1.01c5.163.052 8.463 1.316 10.104 2.167H8.474c.426-.227.97-.483 1.642-.738.528-.201.217-1.02-.311-.819a14 14 0 0 0-2.326 1.116c-.933.568-.933.705-.933.879 0 .241.196.437.438.437h23.93c.666 0 .404-.699.074-.932m-7.061-12.157c1.847-1.277 3.6-.856 4.232-.635a4.77 4.77 0 0 1-2.096 3.749 4.6 4.6 0 0 1-4.002.646q1.296-1.212 3.145-2.006c.519-.222.174-1.027-.345-.804a12 12 0 0 0-2.784 1.65 4.63 4.63 0 0 1 1.85-2.6m-3.303 2.341q.294 0 .625-.023c-.145.5-.2.94-.22 1.25a9.7 9.7 0 0 0-1.756 2.592v-3.93c.307.053.775.111 1.351.111M20.41 12.63c.733-2.126 2.393-2.83 3.033-3.028.38.56 1.25 2.163.526 4.265a4.6 4.6 0 0 1-2.403 2.719c.569-1.68 1.13-3.272 1.538-4.271.213-.523-.598-.854-.81-.331-.426 1.043-1.005 2.685-1.587 4.404-.398-.762-.86-2.126-.297-3.758m-8.44 16.607c-1.116-.88-1.837-2-2.142-3.328a5.8 5.8 0 0 1-.145-1.504 5.88 5.88 0 0 1 5.221 1.082c1.086.855 1.784 1.958 2.078 3.276q.062.288.094.544a10 10 0 0 0-.874-.929c-1.51-1.417-3.01-2.01-3.073-2.035-.526-.205-.843.611-.317.816.014.005 1.403.555 2.79 1.858q.666.624 1.173 1.322c-.97.197-2.964.349-4.805-1.102" />
  </g>
  <path fill="#000"
    d="M40.616 31.609V14.526H53.44V31.61h-2.13V16.416h-8.54V31.61zm28.123-6.436q0 1.604-.431 2.847-.407 1.221-1.196 2.082a5 5 0 0 1-1.89 1.316q-1.101.43-2.465.43a6.3 6.3 0 0 1-2.344-.43 5.3 5.3 0 0 1-1.867-1.316q-.788-.862-1.244-2.082-.43-1.244-.43-2.847 0-2.13.717-3.589.718-1.483 2.058-2.249 1.34-.79 3.182-.79 1.746 0 3.062.79 1.34.765 2.082 2.25.766 1.458.766 3.588m-9.69 0q0 1.507.383 2.632.405 1.1 1.244 1.699.837.598 2.129.598 1.291 0 2.13-.598.837-.599 1.22-1.7.405-1.124.406-2.63 0-1.533-.406-2.609t-1.245-1.65q-.813-.6-2.129-.599-1.962 0-2.847 1.292t-.885 3.565m22.31-6.388v11.054h1.866v6.22H81.19v-4.45h-8.924v4.45h-2.01v-6.22h1.029a15.6 15.6 0 0 0 1.818-3.326 19 19 0 0 0 1.1-3.78q.384-1.986.407-3.948zm-4.881 1.65a20 20 0 0 1-.503 3.374 22 22 0 0 1-1.053 3.302q-.62 1.58-1.459 2.727h5.862v-9.402zm20.17 4.738q0 1.604-.43 2.847-.407 1.221-1.197 2.082a5 5 0 0 1-1.89 1.316q-1.1.43-2.464.43a6.3 6.3 0 0 1-2.345-.43 5.3 5.3 0 0 1-1.866-1.316q-.79-.862-1.244-2.082-.431-1.244-.431-2.847 0-2.13.718-3.589.717-1.483 2.057-2.249 1.34-.79 3.182-.79 1.747 0 3.063.79 1.34.765 2.081 2.25.766 1.458.766 3.588m-9.69 0q0 1.507.383 2.632.407 1.1 1.244 1.699.837.598 2.13.598 1.29 0 2.129-.598.837-.599 1.22-1.7.407-1.124.407-2.63 0-1.533-.407-2.609t-1.244-1.65q-.813-.6-2.13-.599-1.961 0-2.847 1.292t-.885 3.565m18.888-6.627q2.368 0 3.804 1.65 1.46 1.651 1.46 4.977 0 2.178-.67 3.685-.647 1.482-1.842 2.249-1.173.741-2.776.741-.98 0-1.746-.263a4.9 4.9 0 0 1-1.316-.67 5.6 5.6 0 0 1-.909-.933h-.144q.048.406.096 1.029t.048 1.076v5.264h-2.106V18.785h1.723l.287 1.747h.096a5.4 5.4 0 0 1 .909-1.005 4.2 4.2 0 0 1 1.292-.718q.766-.263 1.794-.263m-.382 1.77q-1.293 0-2.082.503-.79.478-1.148 1.46-.36.98-.383 2.487v.407q0 1.58.335 2.68t1.124 1.674q.814.575 2.201.575 1.173 0 1.914-.646.766-.645 1.125-1.747.383-1.125.383-2.56 0-2.201-.862-3.517-.837-1.316-2.607-1.316m19.911 4.857q0 1.604-.431 2.847-.407 1.221-1.196 2.082a5 5 0 0 1-1.89 1.316q-1.1.43-2.464.43a6.3 6.3 0 0 1-2.345-.43 5.3 5.3 0 0 1-1.866-1.316q-.79-.862-1.244-2.082-.43-1.244-.431-2.847 0-2.13.718-3.589.717-1.483 2.057-2.249 1.34-.79 3.182-.79 1.748 0 3.063.79 1.34.765 2.081 2.25.766 1.458.766 3.588m-9.69 0q0 1.507.383 2.632.407 1.1 1.244 1.699.837.598 2.13.598t2.129-.598 1.22-1.7q.407-1.124.407-2.63 0-1.533-.407-2.609t-1.244-1.65q-.813-.6-2.129-.599-1.962 0-2.847 1.292-.886 1.292-.886 3.565m27.704-6.388-5.287 6.22 5.742 6.604h-2.393l-5.55-6.508v6.508h-1.962v-6.508l-5.551 6.508h-2.392l5.742-6.603-5.288-6.221h2.297l5.192 6.22v-6.22h1.962v6.22l5.215-6.22zm4.426 0v5.335h6.963v-5.335h2.105v12.824h-2.105v-5.718h-6.963v5.718h-2.105V18.785zm14.875 7.824q0 .214-.024.622 0 .382-.024.837l-.048.837q-.023.384-.047.622l6.866-10.742h2.584v12.824h-1.962v-8.565l.048-1.22q.024-.622.048-.934l-6.819 10.719h-2.608V18.785h1.986zm20.733-7.824h2.297l-5.479 6.173 5.934 6.651h-2.441l-5.79-6.508v6.508h-2.105V18.785h2.105v6.22zm6.826 7.824q0 .214-.024.622 0 .382-.024.837l-.048.837a21 21 0 0 1-.047.622l6.866-10.742h2.584v12.824h-1.962v-8.565l.048-1.22q.024-.622.048-.934l-6.819 10.719h-2.608V18.785h1.986z" />
  <defs>
    <clipPath id="clip0_9203_62959">
      <path fill="#fff" d="M3.995 8.667H33.88v29.885H3.995z" />
    </clipPath>
  </defs>
</svg>
