<svg xmlns="http://www.w3.org/2000/svg" width="24" height="24" fill="none" viewBox="0 0 24 24"><path fill="#000" d="M12.005 4.866c2.404 0 2.689.01 3.634.053.88.039 1.353.186 1.67.31.418.161.72.358 1.033.67.317.318.51.616.675 1.035.123.316.27.794.31 1.67.041.949.052 1.233.052 3.635 0 2.4-.01 2.688-.053 3.634-.038.88-.186 1.354-.309 1.67-.162.419-.358.72-.672 1.033-.316.317-.615.51-1.033.675-.316.123-.794.27-1.67.31-.949.042-1.233.052-3.634.052-2.402 0-2.69-.01-3.635-.052-.88-.04-1.354-.186-1.67-.31a2.8 2.8 0 0 1-1.034-.671 2.8 2.8 0 0 1-.675-1.033c-.123-.317-.27-.795-.31-1.67-.041-.95-.052-1.234-.052-3.635s.01-2.69.053-3.635c.039-.88.186-1.353.309-1.67a2.8 2.8 0 0 1 .672-1.034 2.8 2.8 0 0 1 1.033-.675c.317-.123.794-.27 1.67-.309.946-.042 1.23-.053 3.635-.053m0-1.62c-2.444 0-2.749.01-3.709.053-.956.042-1.614.197-2.183.418a4.4 4.4 0 0 0-1.595 1.04 4.4 4.4 0 0 0-1.04 1.593c-.222.573-.377 1.227-.42 2.183-.041.963-.052 1.268-.052 3.712s.01 2.748.053 3.708c.042.956.197 1.614.418 2.183a4.4 4.4 0 0 0 1.04 1.596 4.4 4.4 0 0 0 1.593 1.037c.573.221 1.227.376 2.183.418.96.042 1.265.053 3.708.053s2.75-.01 3.709-.053c.956-.042 1.613-.197 2.183-.418a4.4 4.4 0 0 0 1.592-1.037 4.4 4.4 0 0 0 1.037-1.593c.222-.573.376-1.226.419-2.182.042-.96.052-1.266.052-3.709s-.01-2.749-.052-3.709c-.043-.956-.197-1.613-.419-2.182a4.2 4.2 0 0 0-1.03-1.6A4.4 4.4 0 0 0 17.9 3.72c-.573-.222-1.227-.376-2.183-.418-.963-.046-1.269-.057-3.712-.057"/><path fill="#000" d="M12.004 7.622a4.623 4.623 0 1 0 4.623 4.623 4.624 4.624 0 0 0-4.623-4.623m0 7.62a2.998 2.998 0 1 1 0-5.996 2.998 2.998 0 0 1 0 5.997m5.884-7.803a1.08 1.08 0 1 1-2.158 0 1.08 1.08 0 0 1 2.158 0"/></svg>