<svg xmlns="http://www.w3.org/2000/svg" width="24" height="24" fill="none" viewBox="0 0 24 24">
  <path fill="currentColor"
    d="M4.554 21.15q-.69 0-1.197-.507a1.64 1.64 0 0 1-.506-1.197V4.554q0-.693.506-1.201a1.63 1.63 0 0 1 1.197-.509h6.605q.36 0 .606.25a.84.84 0 0 1 .246.613.82.82 0 0 1-.246.604.83.83 0 0 1-.606.243H4.554v14.892h6.605q.36 0 .606.247a.83.83 0 0 1 .246.61.82.82 0 0 1-.246.604.83.83 0 0 1-.606.242zm13.338-8.298H9.816a.82.82 0 0 1-.606-.247.83.83 0 0 1-.246-.61q0-.362.246-.604a.83.83 0 0 1 .606-.243h8.026l-1.923-1.923a.78.78 0 0 1-.243-.6.86.86 0 0 1 .268-.597.8.8 0 0 1 .607-.254.85.85 0 0 1 .611.257l3.397 3.397q.249.257.249.598a.83.83 0 0 1-.25.596l-3.37 3.371a.77.77 0 0 1-.595.246.9.9 0 0 1-.61-.264.86.86 0 0 1-.248-.609.8.8 0 0 1 .259-.61z" />
</svg>
