<svg fill="none" version="1.1" viewBox="0 0 188 48" xmlns="http://www.w3.org/2000/svg">
  <g transform="translate(0 .391)">
    <path d="m6.984 38.11c0-0.02 3.563-3.044 11.97-3.044 8.162 0 11.96 3.024 11.96 3.044z"
      fill="#f6cc90" />
    <path
      d="m18.95 35.07q-0.782 0-1.509 0.033c7.15 0.33 10.5 2.992 10.5 3.01h2.977c0-0.019-3.804-3.043-11.96-3.043"
      fill="#f0c17f" />
    <path
      d="m24.38 14.01c-0.973 2.824-3.597 3.31-3.597 3.31s-1.738-2.082-0.79-4.832c0.999-2.898 3.622-3.384 3.622-3.384s1.751 2.045 0.765 4.906"
      fill="#c5e866" />
    <path
      d="m23.62 9.104s-0.694 0.129-1.503 0.647c0.445 0.82 0.996 2.36 0.341 4.259a5.03 5.03 0 0 1-2.087 2.666c0.223 0.412 0.417 0.644 0.417 0.644s2.623-0.486 3.597-3.31c0.986-2.86-0.765-4.906-0.765-4.906"
      fill="#b2d94b" />
    <path
      d="m21.77 27.29c-1.6 0.227-2.777-0.1-2.777-0.1s-1.018-4.085 2.164-7.278c3.352-3.362 7.34-2.256 7.34-2.256s0.875 3.335-1.443 6.435"
      fill="#9cc042" />
    <path
      d="m28.49 17.65s-1.07-0.296-2.566-0.116c0.404 0.051 0.64 0.116 0.64 0.116s0.875 3.335-1.444 6.435l-5.283 3.199-0.174 0.022c0.499 0.062 1.238 0.1 2.1-0.022l5.284-3.2c2.318-3.098 1.443-6.434 1.443-6.434"
      fill="#85aa18" />
    <path
      d="m15.18 25.14c2.84 2.237 2.355 5.444 2.355 5.444s-3.065 1.173-5.83-1.006c-2.913-2.295-2.429-5.502-2.429-5.502s3.029-1.202 5.904 1.064"
      fill="#c5e866" />
    <path
      d="m11.92 20.53c2.859 3.641 6.95 3.015 6.95 3.015s1.492-3.937-1.292-7.484c-2.932-3.736-7.023-3.11-7.023-3.11s-1.53 3.89 1.366 7.579"
      fill="#9cc042" />
    <path
      d="m26.31 28.94c-2.452 1.696-4.852 0.527-4.852 0.527s-0.17-2.71 2.218-4.361c2.516-1.74 4.916-0.572 4.916-0.572s0.203 2.688-2.282 4.406"
      fill="#c5e866" />
    <path
      d="m28.6 24.53s-1.251-0.608-2.894-0.293c0.6 0.114 0.968 0.293 0.968 0.293s0.202 2.688-2.282 4.406a5.1 5.1 0 0 1-1.937 0.828 5.02 5.02 0 0 0 3.863-0.828c2.484-1.718 2.282-4.406 2.282-4.406"
      fill="#b2d94b" />
    <path
      d="m30.99 37.62c-0.866-0.61-1.853-1.065-2.838-1.444-1.777-0.684-4.735-1.495-8.831-1.542 0.066-0.566 0.224-1.38 0.593-2.286q0.551-1.35 1.485-2.433c0.292 0.12 1.043 0.383 2.026 0.383 0.91 0 2.016-0.226 3.138-1.001 2.66-1.84 2.479-4.679 2.47-4.799a0.44 0.44 0 0 0-0.245-0.36 4.6 4.6 0 0 0-1.017-0.32 8.4 8.4 0 0 0 1.066-2.48c0.137-0.547-0.712-0.76-0.85-0.212a7.5 7.5 0 0 1-1.199 2.581c-0.948-0.022-2.138 0.192-3.357 1.035a5.44 5.44 0 0 0-1.83 2.124 7.6 7.6 0 0 1-1.877 7e-3c0.89-1.2 3.208-4.107 5.818-5.626 0.488-0.284 0.048-1.04-0.44-0.756-2.54 1.477-4.75 4.108-5.816 5.505-0.062-1.363 0.174-3.766 2.18-5.779 1.308-1.311 2.864-2.071 4.626-2.258a7.3 7.3 0 0 1 2.033 0.061c0.038 0.229 0.086 0.598 0.095 1.06 0.01 0.56 0.885 0.553 0.875-0.015-0.016-0.908-0.169-1.5-0.175-1.524a0.44 0.44 0 0 0-0.306-0.31c-0.044-0.013-1.094-0.298-2.575-0.147-1.363 0.138-3.37 0.687-5.193 2.515a9 9 0 0 0-0.428 0.463c0.246-0.757 0.514-1.576 0.789-2.4a5.49 5.49 0 0 0 3.592-3.51c1.056-3.062-0.768-5.241-0.846-5.332a0.44 0.44 0 0 0-0.413-0.146c-0.117 0.022-2.886 0.568-3.956 3.671-0.888 2.576 0.377 4.59 0.764 5.12-0.255 0.767-0.504 1.527-0.735 2.236a8.26 8.26 0 0 0-1.688-3.911c-1.595-2.032-3.523-2.814-4.86-3.113-1.453-0.325-2.53-0.167-2.574-0.16a0.44 0.44 0 0 0-0.341 0.273c-0.013 0.031-0.303 0.779-0.402 1.926-0.048 0.563 0.824 0.638 0.872 0.075a7.4 7.4 0 0 1 0.263-1.432 7.3 7.3 0 0 1 2.026 0.18c1.727 0.395 3.183 1.334 4.327 2.791 1.083 1.381 1.62 2.983 1.597 4.762a8 8 0 0 1-0.154 1.473c-1.732-3.226-4.184-5.704-4.292-5.811-0.398-0.4-1.018 0.218-0.62 0.618 0.026 0.026 2.554 2.582 4.228 5.772a7.6 7.6 0 0 1-1.468-0.178c-1.714-0.379-3.147-1.29-4.26-2.708a7.7 7.7 0 0 1-1.525-3.256c-0.111-0.554-0.97-0.38-0.858 0.173a8.6 8.6 0 0 0 1.694 3.624c1.557 1.983 3.469 2.743 4.798 3.03a8.3 8.3 0 0 0 2.024 0.19v7.371a9 9 0 0 0-0.425-0.81 6.57 6.57 0 0 0-2.526-5.78c-3.039-2.396-6.203-1.181-6.336-1.128a0.44 0.44 0 0 0-0.272 0.341c-0.021 0.141-0.487 3.487 2.59 5.912a6.5 6.5 0 0 0 4.093 1.42 7 7 0 0 0 1.762-0.224c0.61 1.064 0.97 2.24 1.078 3.516-2.265 0.039-4.379 0.299-6.29 0.776-0.548 0.137-0.335 0.986 0.213 0.85 1.851-0.463 3.906-0.715 6.113-0.75v1.006c0 0.564 0.875 0.564 0.875 0v-1.01c5.163 0.052 8.463 1.316 10.1 2.167h-20.9c0.426-0.227 0.97-0.483 1.642-0.738 0.528-0.201 0.217-1.02-0.311-0.819a14 14 0 0 0-2.326 1.116c-0.933 0.568-0.933 0.705-0.933 0.879 0 0.241 0.196 0.437 0.438 0.437h23.93c0.666 0 0.404-0.699 0.074-0.932m-7.061-12.16c1.847-1.277 3.6-0.856 4.232-0.635a4.77 4.77 0 0 1-2.096 3.749 4.6 4.6 0 0 1-4.002 0.646q1.296-1.212 3.145-2.006c0.519-0.222 0.174-1.027-0.345-0.804a12 12 0 0 0-2.784 1.65 4.63 4.63 0 0 1 1.85-2.6m-3.303 2.341q0.294 0 0.625-0.023c-0.145 0.5-0.2 0.94-0.22 1.25a9.7 9.7 0 0 0-1.756 2.592v-3.93c0.307 0.053 0.775 0.111 1.351 0.111m-0.214-15.17c0.733-2.126 2.393-2.83 3.033-3.028 0.38 0.56 1.25 2.163 0.526 4.265a4.6 4.6 0 0 1-2.403 2.719c0.569-1.68 1.13-3.272 1.538-4.271 0.213-0.523-0.598-0.854-0.81-0.331-0.426 1.043-1.005 2.685-1.587 4.404-0.398-0.762-0.86-2.126-0.297-3.758m-8.44 16.61c-1.116-0.88-1.837-2-2.142-3.328a5.8 5.8 0 0 1-0.145-1.504 5.88 5.88 0 0 1 5.221 1.082c1.086 0.855 1.784 1.958 2.078 3.276q0.062 0.288 0.094 0.544a10 10 0 0 0-0.874-0.929c-1.51-1.417-3.01-2.01-3.073-2.035-0.526-0.205-0.843 0.611-0.317 0.816 0.014 5e-3 1.403 0.555 2.79 1.858q0.666 0.624 1.173 1.322c-0.97 0.197-2.964 0.349-4.805-1.102"
      fill="#060606" />
  </g>
  <path class="logoText" fill="currentColor"
    d="m58.98 16.08h-7.651v18.88h-2.848v-18.88h-7.651v-2.531h18.15zm9.809 5.767h-0.1438q-0.6041-0.1438-1.179-0.2014-0.5609-0.07191-1.338-0.07191-1.251 0-2.416 0.5609-1.165 0.5465-2.244 1.424v11.41h-2.704v-16.07h2.704v2.373q1.611-1.294 2.833-1.827 1.237-0.5465 2.517-0.5465 0.7047 0 1.021 0.04315 0.3164 0.02876 0.9492 0.1294zm14.51 13.12h-2.69v-1.712q-0.3596 0.2445-0.978 0.6904-0.6041 0.4315-1.179 0.6904-0.676 0.3308-1.553 0.5465-0.8773 0.2301-2.057 0.2301-2.172 0-3.682-1.438-1.51-1.438-1.51-3.668 0-1.827 0.7767-2.948 0.791-1.136 2.244-1.783 1.467-0.6472 3.524-0.8773 2.057-0.2301 4.415-0.3452v-0.4171q0-0.9205-0.3308-1.525-0.3164-0.6041-0.9205-0.9492-0.5753-0.3308-1.381-0.4459-0.8054-0.1151-1.683-0.1151-1.064 0-2.373 0.2876-1.309 0.2733-2.704 0.8054h-0.1438v-2.747q0.791-0.2157 2.287-0.4746 1.496-0.2589 2.948-0.2589 1.697 0 2.948 0.2876 1.266 0.2733 2.186 0.9492 0.9061 0.6616 1.381 1.712 0.4746 1.05 0.4746 2.603zm-2.69-3.955v-4.473q-1.237 0.07191-2.92 0.2157-1.668 0.1438-2.646 0.4171-1.165 0.3308-1.884 1.036-0.7191 0.6904-0.7191 1.913 0 1.381 0.8342 2.085 0.8342 0.6904 2.546 0.6904 1.424 0 2.603-0.5465 1.179-0.5609 2.186-1.338zm21.56-12.11-6.501 16.07h-2.718l-6.458-16.07h2.934l4.976 12.79 4.933-12.79zm16.73 8.313h-11.84q0 1.481 0.4459 2.589 0.4459 1.093 1.223 1.798 0.7479 0.6904 1.769 1.036 1.036 0.3452 2.272 0.3452 1.64 0 3.294-0.6472 1.668-0.6616 2.373-1.294h0.1438v2.948q-1.366 0.5753-2.79 0.9636-1.424 0.3883-2.992 0.3883-3.998 0-6.242-2.157-2.244-2.172-2.244-6.156 0-3.941 2.143-6.256 2.157-2.316 5.667-2.316 3.25 0 5.005 1.898 1.769 1.898 1.769 5.393zm-2.632-2.071q-0.0144-2.129-1.079-3.294-1.05-1.165-3.207-1.165-2.172 0-3.466 1.28-1.28 1.28-1.453 3.179zm9.464 9.823h-2.704v-22.38h2.704zm8.083 0h-2.704v-22.38h2.704zm18.8-7.752h-11.84q0 1.481 0.4458 2.589 0.4459 1.093 1.223 1.798 0.7479 0.6904 1.769 1.036 1.036 0.3452 2.272 0.3452 1.64 0 3.294-0.6472 1.668-0.6616 2.373-1.294h0.1438v2.948q-1.366 0.5753-2.79 0.9636-1.424 0.3883-2.992 0.3883-3.998 0-6.242-2.157-2.244-2.172-2.244-6.156 0-3.941 2.143-6.256 2.157-2.316 5.667-2.316 3.25 0 5.005 1.898 1.769 1.898 1.769 5.393zm-2.632-2.071q-0.0144-2.129-1.079-3.294-1.05-1.165-3.207-1.165-2.172 0-3.466 1.28-1.28 1.28-1.453 3.179zm16.76-3.294h-0.1438q-0.6041-0.1438-1.179-0.2014-0.5609-0.07191-1.338-0.07191-1.251 0-2.416 0.5609-1.165 0.5465-2.244 1.424v11.41h-2.704v-16.07h2.704v2.373q1.611-1.294 2.833-1.827 1.237-0.5465 2.517-0.5465 0.7047 0 1.021 0.04315 0.3164 0.02876 0.9492 0.1294zm14.02 8.486q0 2.201-1.827 3.61-1.812 1.409-4.962 1.409-1.783 0-3.279-0.4171-1.481-0.4315-2.488-0.9349v-3.035h0.1438q1.28 0.9636 2.848 1.539 1.568 0.5609 3.006 0.5609 1.783 0 2.79-0.5753 1.007-0.5753 1.007-1.812 0-0.9492-0.5465-1.438-0.5465-0.489-2.1-0.8342-0.5753-0.1294-1.51-0.302-0.9205-0.1726-1.683-0.3739-2.114-0.5609-3.006-1.64-0.8773-1.093-0.8773-2.675 0-0.9924 0.4027-1.87 0.4171-0.8773 1.251-1.568 0.8054-0.676 2.042-1.064 1.251-0.4027 2.79-0.4027 1.438 0 2.905 0.3596 1.481 0.3452 2.459 0.8486v2.891h-0.1438q-1.036-0.7623-2.517-1.28-1.481-0.5322-2.905-0.5322-1.481 0-2.503 0.5753-1.021 0.5609-1.021 1.683 0 0.9924 0.6184 1.496 0.6041 0.5034 1.956 0.8198 0.7479 0.1726 1.668 0.3452 0.9349 0.1726 1.553 0.3164 1.884 0.4315 2.905 1.481 1.021 1.064 1.021 2.819z"
    stroke-width="2.455" aria-label="Travellers" />
</svg>
