<svg xmlns="http://www.w3.org/2000/svg" width="24" height="24" fill="none" viewBox="0 0 24 24">
  <path fill="currentColor"
    d="M3.702 18.221a.82.82 0 0 1-.606-.247.84.84 0 0 1-.245-.615q0-.362.245-.605a.83.83 0 0 1 .606-.242h16.596q.36 0 .61.247a.83.83 0 0 1 .248.609q0 .37-.249.61a.84.84 0 0 1-.61.243zm0-5.37a.82.82 0 0 1-.606-.246.83.83 0 0 1-.245-.61q0-.362.245-.604a.83.83 0 0 1 .606-.243h16.596q.36 0 .61.247a.83.83 0 0 1 .248.61.84.84 0 0 1-.858.847zm0-5.363a.82.82 0 0 1-.606-.247.84.84 0 0 1-.245-.615q0-.362.245-.605a.83.83 0 0 1 .606-.242h16.596q.36 0 .61.247a.83.83 0 0 1 .248.609q0 .369-.249.61a.84.84 0 0 1-.61.243z" />
</svg>
