<svg xmlns="http://www.w3.org/2000/svg" width="24" height="24" fill="none" viewBox="0 0 24 24"><path fill="#000" d="M4.85 19.321V7.554q0-.711.498-1.21a1.64 1.64 0 0 1 1.206-.5h2.505V2.69q0-.366.269-.639a.86.86 0 0 1 .634-.272h4.076a.86.86 0 0 1 .634.272.88.88 0 0 1 .269.639v3.155h2.505q.712 0 1.21.498.5.5.5 1.21v11.768q0 .71-.5 1.206a1.65 1.65 0 0 1-1.21.497v.411a.765.765 0 0 1-.786.786.88.88 0 0 1-.588-.21q-.245-.209-.197-.576v-.41h-7.75v.41a.765.765 0 0 1-.785.786.88.88 0 0 1-.589-.21q-.245-.209-.197-.576v-.41q-.71 0-1.206-.498a1.64 1.64 0 0 1-.497-1.206m5.775-13.477h2.75v-2.5h-2.75zM12 11.835q1.436 0 2.835-.32a8.4 8.4 0 0 0 2.611-1.077V7.554H6.554v2.884q1.213.757 2.612 1.076 1.398.32 2.834.32m-.786 1.988v-.323a11.6 11.6 0 0 1-2.427-.404 9 9 0 0 1-2.233-.966v7.192h10.892v-7.198a9 9 0 0 1-2.233.966 12 12 0 0 1-2.427.41v.323q0 .334-.225.56a.77.77 0 0 1-.565.226.75.75 0 0 1-.561-.224.77.77 0 0 1-.22-.562"/></svg>