<svg xmlns="http://www.w3.org/2000/svg" width="24" height="24" fill="none" viewBox="0 0 24 24"><path fill="#000" d="m16.386 12.722-2.335 3.765q-.2.33-.566.256a.57.57 0 0 1-.465-.431l-.82-3.308-7.56 7.524a.8.8 0 0 1-.596.26.8.8 0 0 1-.597-.26.82.82 0 0 1-.255-.597q0-.342.255-.597l7.535-7.529-3.319-.82a.56.56 0 0 1-.428-.464q-.072-.366.253-.572l3.765-2.36-.306-4.401a.54.54 0 0 1 .316-.557q.34-.174.621.076l3.378 2.84 4.095-1.641a.54.54 0 0 1 .606.13q.257.256.131.607l-1.666 4.095 2.84 3.384a.525.525 0 0 1 .088.621.52.52 0 0 1-.544.316zM3.16 5.999a.4.4 0 0 1-.137-.308q0-.177.137-.314l1.222-1.221a.42.42 0 0 1 .308-.131q.177 0 .314.13l1.19 1.197a.43.43 0 0 1 .137.311.43.43 0 0 1-.136.311L4.974 7.196a.43.43 0 0 1-.311.136.43.43 0 0 1-.31-.136zm10.826 7.538 1.539-2.479 2.922.22-1.902-2.241 1.101-2.703-2.703 1.095-2.246-1.902.225 2.922-2.485 1.558 2.848.707zm4.039 7.301-1.222-1.215a.39.39 0 0 1-.124-.311.48.48 0 0 1 .15-.311l1.196-1.19a.41.41 0 0 1 .308-.138q.177 0 .314.137l1.221 1.216a.4.4 0 0 1 .119.311.5.5 0 0 1-.144.31l-1.196 1.192a.43.43 0 0 1-.311.137.43.43 0 0 1-.311-.137"/></svg>